<svg xmlns="http://www.w3.org/2000/svg" xmlns:xlink="http://www.w3.org/1999/xlink" width="500" zoomAndPan="magnify" viewBox="0 0 375 374.999991" height="500" preserveAspectRatio="xMidYMid meet" version="1.2"><defs><clipPath id="6ac63416dc"><path d="M 114 113 L 239 113 L 239 299 L 114 299 Z M 114 113 "/></clipPath><clipPath id="e75b6794a5"><path d="M 214.402344 108.019531 L 243.796875 125.261719 L 138.792969 304.269531 L 109.398438 287.027344 Z M 214.402344 108.019531 "/></clipPath><clipPath id="370bf6a9f7"><path d="M 226.691406 115.230469 L 231.503906 118.050781 C 234.765625 119.964844 237.132812 123.09375 238.085938 126.75 C 239.039062 130.40625 238.5 134.292969 236.585938 137.550781 L 146.015625 291.960938 C 144.101562 295.21875 140.972656 297.585938 137.316406 298.539062 C 133.660156 299.492188 129.773438 298.953125 126.511719 297.039062 L 121.703125 294.21875 C 118.441406 292.304688 116.074219 289.175781 115.121094 285.519531 C 114.167969 281.863281 114.707031 277.976562 116.621094 274.71875 L 207.191406 120.308594 C 209.105469 117.050781 212.234375 114.683594 215.890625 113.730469 C 219.546875 112.777344 223.433594 113.316406 226.691406 115.230469 Z M 226.691406 115.230469 "/></clipPath><clipPath id="b18dd8be07"><path d="M 221 63 L 272 63 L 272 119 L 221 119 Z M 221 63 "/></clipPath><clipPath id="e8769b7b5d"><path d="M 209.519531 99.875 L 238.34375 50.734375 L 283.492188 77.214844 L 254.664062 126.359375 Z M 209.519531 99.875 "/></clipPath><clipPath id="2dc141ec97"><path d="M 256.28125 63.488281 L 227.328125 71.035156 C 226.355469 71.289062 225.628906 72.101562 225.492188 73.097656 C 225.355469 74.09375 225.828125 75.074219 226.695312 75.582031 L 229.128906 77.011719 C 231.988281 78.6875 232.945312 82.363281 231.269531 85.222656 L 222.34375 100.441406 C 220.664062 103.300781 221.625 106.976562 224.480469 108.652344 L 239.703125 117.582031 C 242.558594 119.257812 246.234375 118.300781 247.914062 115.441406 L 256.839844 100.222656 C 258.515625 97.363281 262.191406 96.40625 265.050781 98.082031 L 267.484375 99.511719 C 268.351562 100.019531 269.441406 99.953125 270.242188 99.347656 C 271.042969 98.742188 271.402344 97.710938 271.148438 96.738281 L 263.601562 67.78125 C 262.765625 64.578125 259.488281 62.65625 256.28125 63.488281 Z M 256.28125 63.488281 "/></clipPath></defs><g id="bb1a1fa0ab"><g clip-rule="nonzero" clip-path="url(#6ac63416dc)"><g clip-rule="nonzero" clip-path="url(#e75b6794a5)"><g clip-rule="nonzero" clip-path="url(#370bf6a9f7)"><path style=" stroke:none;fill-rule:nonzero;fill:#00bf63;fill-opacity:1;" d="M 214.402344 108.019531 L 243.796875 125.261719 L 138.792969 304.269531 L 109.398438 287.027344 Z M 214.402344 108.019531 "/></g></g></g><path style="fill:none;stroke-width:3;stroke-linecap:butt;stroke-linejoin:miter;stroke:#000000;stroke-opacity:1;stroke-miterlimit:4;" d="M -0.00121725 1.501446 L 69.455851 1.499652 " transform="matrix(0.376992,-0.642698,0.642698,0.376992,228.129232,116.069904)"/><path style="fill:none;stroke-width:3;stroke-linecap:butt;stroke-linejoin:miter;stroke:#000000;stroke-opacity:1;stroke-miterlimit:4;" d="M -0.000805851 1.501758 L 49.186799 1.501448 " transform="matrix(0.378021,-0.644453,0.644453,0.378021,104.473898,326.881003)"/><g clip-rule="nonzero" clip-path="url(#b18dd8be07)"><g clip-rule="nonzero" clip-path="url(#e8769b7b5d)"><g clip-rule="nonzero" clip-path="url(#2dc141ec97)"><path style=" stroke:none;fill-rule:nonzero;fill:#00bf63;fill-opacity:1;" d="M 206.523438 98.117188 L 236.519531 46.976562 L 287.660156 76.976562 L 257.660156 128.117188 Z M 206.523438 98.117188 "/></g></g></g><g style="fill:#ff3131;fill-opacity:1;"><g transform="translate(115.926836, 262.628122)"><path style="stroke:none" d="M -9.859375 -19.109375 C -8.691406 -21.085938 -6.960938 -22.296875 -4.671875 -22.734375 C -2.390625 -23.179688 -0.15625 -22.765625 2.03125 -21.484375 L 7.296875 -18.40625 C 7.753906 -18.132812 8.085938 -17.914062 8.296875 -17.75 C 8.515625 -17.582031 8.722656 -17.332031 8.921875 -17 C 9.296875 -16.4375 9.109375 -15.519531 8.359375 -14.25 C 7.640625 -13.03125 6.9375 -12.425781 6.25 -12.4375 C 5.863281 -12.445312 5.539062 -12.503906 5.28125 -12.609375 C 5.019531 -12.722656 4.648438 -12.921875 4.171875 -13.203125 L -1.0625 -16.265625 C -1.875 -16.742188 -2.640625 -16.890625 -3.359375 -16.703125 C -4.085938 -16.515625 -4.660156 -16.066406 -5.078125 -15.359375 C -5.492188 -14.660156 -5.644531 -13.914062 -5.53125 -13.125 C -5.425781 -12.332031 -5.125 -11.738281 -4.625 -11.34375 L 1.171875 -7.953125 C 1.628906 -7.679688 1.960938 -7.460938 2.171875 -7.296875 C 2.390625 -7.128906 2.597656 -6.878906 2.796875 -6.546875 C 3.160156 -5.984375 2.96875 -5.0625 2.21875 -3.78125 C 1.488281 -2.53125 0.769531 -1.925781 0.0625 -1.96875 C -0.3125 -2 -0.613281 -2.066406 -0.84375 -2.171875 C -1.082031 -2.273438 -1.441406 -2.46875 -1.921875 -2.75 L -19.78125 -13.21875 C -20.238281 -13.488281 -20.570312 -13.703125 -20.78125 -13.859375 C -21 -14.023438 -21.207031 -14.257812 -21.40625 -14.5625 C -21.78125 -15.15625 -21.59375 -16.09375 -20.84375 -17.375 C -20.113281 -18.625 -19.398438 -19.21875 -18.703125 -19.15625 C -18.304688 -19.144531 -17.984375 -19.085938 -17.734375 -18.984375 C -17.492188 -18.878906 -17.144531 -18.691406 -16.6875 -18.421875 L -10.09375 -14.546875 C -10.71875 -16.242188 -10.640625 -17.765625 -9.859375 -19.109375 Z M -9.859375 -19.109375 "/></g></g><g style="fill:#ff3131;fill-opacity:1;"><g transform="translate(126.526534, 244.557677)"><path style="stroke:none" d="M -12.40625 -8.890625 C -12.863281 -9.160156 -13.195312 -9.375 -13.40625 -9.53125 C -13.625 -9.695312 -13.84375 -9.941406 -14.0625 -10.265625 C -14.414062 -10.835938 -14.21875 -11.765625 -13.46875 -13.046875 C -12.914062 -13.992188 -12.347656 -14.566406 -11.765625 -14.765625 C -11.285156 -14.941406 -10.753906 -14.875 -10.171875 -14.5625 C -9.953125 -14.457031 -9.65625 -14.296875 -9.28125 -14.078125 L 1.171875 -7.953125 C 1.628906 -7.679688 1.960938 -7.460938 2.171875 -7.296875 C 2.390625 -7.128906 2.597656 -6.878906 2.796875 -6.546875 C 3.160156 -5.984375 2.96875 -5.0625 2.21875 -3.78125 C 1.488281 -2.53125 0.769531 -1.925781 0.0625 -1.96875 C -0.3125 -2 -0.613281 -2.066406 -0.84375 -2.171875 C -1.082031 -2.273438 -1.441406 -2.46875 -1.921875 -2.75 Z M -15.0625 -17.046875 C -14.863281 -16.734375 -14.816406 -16.347656 -14.921875 -15.890625 C -15.023438 -15.441406 -15.257812 -14.90625 -15.625 -14.28125 C -15.988281 -13.65625 -16.34375 -13.1875 -16.6875 -12.875 C -17.03125 -12.570312 -17.394531 -12.429688 -17.78125 -12.453125 C -18.164062 -12.472656 -18.476562 -12.535156 -18.71875 -12.640625 C -18.96875 -12.753906 -19.320312 -12.945312 -19.78125 -13.21875 C -20.238281 -13.488281 -20.570312 -13.703125 -20.78125 -13.859375 C -21 -14.023438 -21.207031 -14.257812 -21.40625 -14.5625 C -21.78125 -15.15625 -21.59375 -16.09375 -20.84375 -17.375 C -20.113281 -18.625 -19.398438 -19.21875 -18.703125 -19.15625 C -18.304688 -19.144531 -17.984375 -19.085938 -17.734375 -18.984375 C -17.492188 -18.878906 -17.144531 -18.691406 -16.6875 -18.421875 C -16.226562 -18.148438 -15.890625 -17.929688 -15.671875 -17.765625 C -15.460938 -17.597656 -15.257812 -17.359375 -15.0625 -17.046875 Z M -15.0625 -17.046875 "/></g></g><g style="fill:#ff3131;fill-opacity:1;"><g transform="translate(130.994177, 236.941206)"><path style="stroke:none" d="M 4.578125 -12.328125 C 5.140625 -10.992188 4.9375 -9.5 3.96875 -7.84375 C 3 -6.1875 1.328125 -5.082031 -1.046875 -4.53125 C -3.421875 -3.976562 -5.625 -4.296875 -7.65625 -5.484375 C -9.6875 -6.671875 -11.039062 -8.441406 -11.71875 -10.796875 C -12.394531 -13.160156 -12.226562 -15.207031 -11.21875 -16.9375 C -10.820312 -17.613281 -10.332031 -18.15625 -9.75 -18.5625 C -9.175781 -18.976562 -8.722656 -19.226562 -8.390625 -19.3125 C -8.054688 -19.40625 -7.769531 -19.457031 -7.53125 -19.46875 C -8.050781 -19.863281 -8.351562 -20.316406 -8.4375 -20.828125 C -8.519531 -21.335938 -8.332031 -21.976562 -7.875 -22.75 C -7.425781 -23.53125 -7.035156 -24.066406 -6.703125 -24.359375 C -6.367188 -24.648438 -6.007812 -24.785156 -5.625 -24.765625 C -5.25 -24.742188 -4.945312 -24.6875 -4.71875 -24.59375 C -4.488281 -24.5 -4.144531 -24.316406 -3.6875 -24.046875 L 8.6875 -16.78125 C 10.976562 -15.4375 12.359375 -13.554688 12.828125 -11.140625 C 13.296875 -8.734375 12.945312 -6.535156 11.78125 -4.546875 C 10.882812 -3.023438 9.660156 -1.789062 8.109375 -0.84375 C 6.566406 0.101562 5.5 0.398438 4.90625 0.046875 C 4.125 -0.410156 3.617188 -1.113281 3.390625 -2.0625 C 3.191406 -2.6875 3.070312 -3.148438 3.03125 -3.453125 C 3 -3.753906 3.066406 -4.046875 3.234375 -4.328125 C 3.398438 -4.609375 3.679688 -4.832031 4.078125 -5 C 5.378906 -5.507812 6.359375 -6.320312 7.015625 -7.4375 C 7.453125 -8.195312 7.507812 -8.988281 7.1875 -9.8125 C 6.875 -10.644531 6.300781 -11.304688 5.46875 -11.796875 Z M -4.640625 -10.578125 C -3.992188 -10.203125 -3.257812 -10.113281 -2.4375 -10.3125 C -1.625 -10.519531 -1.003906 -10.988281 -0.578125 -11.71875 C -0.148438 -12.445312 -0.0625 -13.203125 -0.3125 -13.984375 C -0.570312 -14.773438 -1.015625 -15.351562 -1.640625 -15.71875 C -2.265625 -16.082031 -2.984375 -16.195312 -3.796875 -16.0625 C -4.609375 -15.9375 -5.238281 -15.484375 -5.6875 -14.703125 C -6.144531 -13.929688 -6.242188 -13.144531 -5.984375 -12.34375 C -5.734375 -11.539062 -5.285156 -10.953125 -4.640625 -10.578125 Z M -4.640625 -10.578125 "/></g></g><g style="fill:#ff3131;fill-opacity:1;"><g transform="translate(141.243471, 219.468133)"><path style="stroke:none" d="M -9.859375 -19.109375 C -8.691406 -21.085938 -6.960938 -22.296875 -4.671875 -22.734375 C -2.390625 -23.179688 -0.15625 -22.765625 2.03125 -21.484375 L 7.296875 -18.40625 C 7.753906 -18.132812 8.085938 -17.914062 8.296875 -17.75 C 8.515625 -17.582031 8.722656 -17.332031 8.921875 -17 C 9.296875 -16.4375 9.109375 -15.519531 8.359375 -14.25 C 7.640625 -13.03125 6.9375 -12.425781 6.25 -12.4375 C 5.863281 -12.445312 5.539062 -12.503906 5.28125 -12.609375 C 5.019531 -12.722656 4.648438 -12.921875 4.171875 -13.203125 L -1.0625 -16.265625 C -1.875 -16.742188 -2.640625 -16.890625 -3.359375 -16.703125 C -4.085938 -16.515625 -4.660156 -16.066406 -5.078125 -15.359375 C -5.492188 -14.660156 -5.644531 -13.914062 -5.53125 -13.125 C -5.425781 -12.332031 -5.125 -11.738281 -4.625 -11.34375 L 1.171875 -7.953125 C 1.628906 -7.679688 1.960938 -7.460938 2.171875 -7.296875 C 2.390625 -7.128906 2.597656 -6.878906 2.796875 -6.546875 C 3.160156 -5.984375 2.96875 -5.0625 2.21875 -3.78125 C 1.488281 -2.53125 0.769531 -1.925781 0.0625 -1.96875 C -0.3125 -2 -0.613281 -2.066406 -0.84375 -2.171875 C -1.082031 -2.273438 -1.441406 -2.46875 -1.921875 -2.75 L -19.78125 -13.21875 C -20.238281 -13.488281 -20.570312 -13.703125 -20.78125 -13.859375 C -21 -14.023438 -21.207031 -14.257812 -21.40625 -14.5625 C -21.78125 -15.15625 -21.59375 -16.09375 -20.84375 -17.375 C -20.113281 -18.625 -19.398438 -19.21875 -18.703125 -19.15625 C -18.304688 -19.144531 -17.984375 -19.085938 -17.734375 -18.984375 C -17.492188 -18.878906 -17.144531 -18.691406 -16.6875 -18.421875 L -10.09375 -14.546875 C -10.71875 -16.242188 -10.640625 -17.765625 -9.859375 -19.109375 Z M -9.859375 -19.109375 "/></g></g><g style="fill:#ff3131;fill-opacity:1;"><g transform="translate(151.843168, 201.397689)"><path style="stroke:none" d="M -0.15625 -22.078125 C 1.070312 -21.359375 1.800781 -20.523438 2.03125 -19.578125 C 2.269531 -18.628906 2.171875 -17.785156 1.734375 -17.046875 L -2.40625 -9.96875 C -1.851562 -9.632812 -1.191406 -9.6875 -0.421875 -10.125 C 0.335938 -10.5625 0.910156 -11.109375 1.296875 -11.765625 C 1.972656 -12.921875 2.378906 -13.898438 2.515625 -14.703125 L 2.59375 -15.09375 C 2.65625 -15.707031 2.78125 -16.171875 2.96875 -16.484375 C 3.34375 -17.117188 4.113281 -17.40625 5.28125 -17.34375 C 5.957031 -17.289062 6.488281 -17.148438 6.875 -16.921875 C 8.644531 -15.878906 8.289062 -13.238281 5.8125 -9 C 4.945312 -7.519531 3.925781 -6.351562 2.75 -5.5 C 1.570312 -4.65625 0.375 -4.164062 -0.84375 -4.03125 C -3.195312 -3.71875 -5.367188 -4.140625 -7.359375 -5.296875 C -9.867188 -6.773438 -11.394531 -8.769531 -11.9375 -11.28125 C -12.488281 -13.789062 -12.050781 -16.257812 -10.625 -18.6875 C -9.007812 -21.445312 -6.847656 -22.898438 -4.140625 -23.046875 C -2.710938 -23.117188 -1.382812 -22.796875 -0.15625 -22.078125 Z M -2.96875 -15.265625 C -2.53125 -16.023438 -2.628906 -16.59375 -3.265625 -16.96875 C -3.722656 -17.238281 -4.191406 -17.273438 -4.671875 -17.078125 C -5.148438 -16.890625 -5.578125 -16.472656 -5.953125 -15.828125 C -6.335938 -15.179688 -6.453125 -14.390625 -6.296875 -13.453125 C -6.140625 -12.515625 -5.765625 -11.867188 -5.171875 -11.515625 Z M -2.96875 -15.265625 "/></g></g><g style="fill:#ff3131;fill-opacity:1;"><g transform="translate(161.882225, 184.28303)"><path style="stroke:none" d="M -8.578125 -21.015625 C -8.242188 -21.316406 -7.859375 -21.503906 -7.421875 -21.578125 C -6.992188 -21.660156 -6.457031 -21.515625 -5.8125 -21.140625 C -5.175781 -20.765625 -4.59375 -20.164062 -4.0625 -19.34375 C -3.53125 -18.53125 -3.476562 -17.765625 -3.90625 -17.046875 C -4.101562 -16.691406 -4.378906 -16.394531 -4.734375 -16.15625 C -5.085938 -15.925781 -5.421875 -15.539062 -5.734375 -15 C -6.046875 -14.46875 -6.148438 -13.851562 -6.046875 -13.15625 C -5.941406 -12.46875 -5.625 -11.96875 -5.09375 -11.65625 L 1.1875 -7.984375 C 1.644531 -7.710938 1.976562 -7.492188 2.1875 -7.328125 C 2.40625 -7.160156 2.613281 -6.910156 2.8125 -6.578125 C 3.15625 -5.972656 2.957031 -5.039062 2.21875 -3.78125 C 1.664062 -2.832031 1.09375 -2.25 0.5 -2.03125 C 0.03125 -1.875 -0.5 -1.945312 -1.09375 -2.25 C -1.289062 -2.363281 -1.578125 -2.535156 -1.953125 -2.765625 L -12.4375 -8.90625 C -12.894531 -9.175781 -13.226562 -9.390625 -13.4375 -9.546875 C -13.65625 -9.710938 -13.863281 -9.953125 -14.0625 -10.265625 C -14.425781 -10.847656 -14.234375 -11.78125 -13.484375 -13.0625 C -12.785156 -14.257812 -12.117188 -14.867188 -11.484375 -14.890625 C -11.035156 -14.921875 -10.648438 -14.835938 -10.328125 -14.640625 C -10.398438 -14.816406 -10.476562 -15.0625 -10.5625 -15.375 C -10.65625 -15.6875 -10.691406 -16.25 -10.671875 -17.0625 C -10.648438 -17.882812 -10.5 -18.523438 -10.21875 -18.984375 C -9.945312 -19.453125 -9.691406 -19.832031 -9.453125 -20.125 C -9.210938 -20.414062 -8.921875 -20.710938 -8.578125 -21.015625 Z M -8.578125 -21.015625 "/></g></g><g style="fill:#ff3131;fill-opacity:1;"><g transform="translate(168.136808, 173.620169)"><path style="stroke:none" d="M -1.515625 -8.71875 C -0.972656 -8.851562 -0.175781 -8.613281 0.875 -8 L 1 -7.921875 C 1.476562 -7.640625 1.816406 -7.414062 2.015625 -7.25 C 2.222656 -7.09375 2.441406 -6.828125 2.671875 -6.453125 C 3.066406 -5.828125 2.910156 -4.910156 2.203125 -3.703125 C 1.503906 -2.492188 0.847656 -1.800781 0.234375 -1.625 C -0.367188 -1.457031 -1.195312 -1.6875 -2.25 -2.3125 L -2.359375 -2.375 C -2.816406 -2.644531 -3.15625 -2.863281 -3.375 -3.03125 C -3.601562 -3.207031 -3.820312 -3.46875 -4.03125 -3.8125 C -4.445312 -4.445312 -4.300781 -5.367188 -3.59375 -6.578125 C -2.882812 -7.785156 -2.191406 -8.5 -1.515625 -8.71875 Z M -1.515625 -8.71875 "/></g></g><g style="fill:#ff3131;fill-opacity:1;"><g transform="translate(174.434455, 163.939845)"><path style="stroke:none" d="M -7.390625 -15.171875 C -6.765625 -16.234375 -6.101562 -16.679688 -5.40625 -16.515625 C -5.050781 -16.429688 -4.632812 -16.25 -4.15625 -15.96875 C -3.6875 -15.6875 -3.335938 -15.410156 -3.109375 -15.140625 C -2.890625 -14.878906 -2.785156 -14.601562 -2.796875 -14.3125 C -2.796875 -13.894531 -2.976562 -13.375 -3.34375 -12.75 L -4.3125 -11.328125 L 1.859375 -7.6875 C 2.441406 -7.34375 2.832031 -7.015625 3.03125 -6.703125 C 3.238281 -6.390625 3.300781 -6.054688 3.21875 -5.703125 C 3.132812 -5.347656 2.953125 -4.929688 2.671875 -4.453125 C 2.390625 -3.972656 2.113281 -3.625 1.84375 -3.40625 C 1.570312 -3.1875 1.289062 -3.078125 1 -3.078125 C 0.707031 -3.085938 0.457031 -3.132812 0.25 -3.21875 C 0.0507812 -3.300781 -0.222656 -3.453125 -0.578125 -3.671875 L -6.671875 -7.265625 L -7.15625 -6.4375 C -7.4375 -6.050781 -7.703125 -5.820312 -7.953125 -5.75 C -8.410156 -5.625 -9.054688 -5.804688 -9.890625 -6.296875 C -11.140625 -7.046875 -11.492188 -7.875 -10.953125 -8.78125 L -10.515625 -9.546875 L -11.75 -10.265625 C -12.925781 -10.960938 -13.742188 -12.015625 -14.203125 -13.421875 C -14.671875 -14.835938 -14.429688 -16.347656 -13.484375 -17.953125 C -13.285156 -18.296875 -13.117188 -18.546875 -12.984375 -18.703125 C -12.859375 -18.867188 -12.660156 -19.03125 -12.390625 -19.1875 C -11.953125 -19.488281 -11.242188 -19.347656 -10.265625 -18.765625 C -9.523438 -18.328125 -9.070312 -17.882812 -8.90625 -17.4375 C -8.789062 -17.070312 -8.847656 -16.648438 -9.078125 -16.171875 C -9.160156 -16.023438 -9.285156 -15.8125 -9.453125 -15.53125 C -9.796875 -14.957031 -9.773438 -14.554688 -9.390625 -14.328125 L -8.125 -13.59375 Z M -7.390625 -15.171875 "/></g></g><g style="fill:#ff3131;fill-opacity:1;"><g transform="translate(180.555333, 153.574558)"><path style="stroke:none" d="M 3.671875 -6.34375 C 2.765625 -4.789062 1.425781 -3.847656 -0.34375 -3.515625 C -2.125 -3.191406 -3.863281 -3.53125 -5.5625 -4.53125 L -9.578125 -6.90625 C -9.953125 -7.125 -10.210938 -7.296875 -10.359375 -7.421875 C -10.515625 -7.546875 -10.679688 -7.726562 -10.859375 -7.96875 C -11.140625 -8.4375 -10.992188 -9.160156 -10.421875 -10.140625 C -9.785156 -11.210938 -9.117188 -11.671875 -8.421875 -11.515625 C -8.117188 -11.453125 -7.707031 -11.265625 -7.1875 -10.953125 L -3.140625 -8.578125 C -2.515625 -8.203125 -1.914062 -8.085938 -1.34375 -8.234375 C -0.78125 -8.378906 -0.320312 -8.757812 0.03125 -9.375 C 0.394531 -9.988281 0.5 -10.585938 0.34375 -11.171875 C 0.195312 -11.765625 -0.171875 -12.238281 -0.765625 -12.59375 L -4.84375 -15 C -5.195312 -15.207031 -5.453125 -15.375 -5.609375 -15.5 C -5.773438 -15.632812 -5.9375 -15.828125 -6.09375 -16.078125 C -6.375 -16.515625 -6.222656 -17.226562 -5.640625 -18.21875 C -5.066406 -19.1875 -4.515625 -19.65625 -3.984375 -19.625 C -3.679688 -19.59375 -3.4375 -19.535156 -3.25 -19.453125 C -3.0625 -19.367188 -2.785156 -19.222656 -2.421875 -19.015625 L 5.71875 -14.203125 C 6.050781 -14.003906 6.300781 -13.84375 6.46875 -13.71875 C 6.632812 -13.59375 6.785156 -13.398438 6.921875 -13.140625 C 7.179688 -12.679688 7.03125 -11.972656 6.46875 -11.015625 C 5.914062 -10.085938 5.394531 -9.625 4.90625 -9.625 C 4.550781 -9.625 4.191406 -9.726562 3.828125 -9.9375 C 3.898438 -9.8125 3.972656 -9.582031 4.046875 -9.25 C 4.117188 -8.914062 4.164062 -8.613281 4.1875 -8.34375 C 4.21875 -7.625 4.046875 -6.957031 3.671875 -6.34375 Z M 3.671875 -6.34375 "/></g></g><g style="fill:#ff3131;fill-opacity:1;"><g transform="translate(188.798111, 139.615978)"><path style="stroke:none" d="M -7.609375 -14.84375 C -6.703125 -16.375 -5.359375 -17.300781 -3.578125 -17.625 C -1.796875 -17.945312 -0.0625 -17.613281 1.625 -16.625 L 5.671875 -14.234375 C 6.023438 -14.015625 6.28125 -13.84375 6.4375 -13.71875 C 6.601562 -13.601562 6.765625 -13.425781 6.921875 -13.1875 C 7.203125 -12.726562 7.050781 -12.003906 6.46875 -11.015625 C 5.820312 -9.929688 5.171875 -9.472656 4.515625 -9.640625 C 4.203125 -9.703125 3.785156 -9.882812 3.265625 -10.1875 L -0.796875 -12.59375 C -1.421875 -12.957031 -2.019531 -13.0625 -2.59375 -12.90625 C -3.164062 -12.757812 -3.628906 -12.382812 -3.984375 -11.78125 C -4.335938 -11.175781 -4.441406 -10.570312 -4.296875 -9.96875 C -4.148438 -9.375 -3.78125 -8.90625 -3.1875 -8.5625 L 0.890625 -6.15625 C 1.242188 -5.9375 1.503906 -5.765625 1.671875 -5.640625 C 1.835938 -5.523438 1.988281 -5.335938 2.125 -5.078125 C 2.414062 -4.640625 2.269531 -3.925781 1.6875 -2.9375 C 1.125 -1.976562 0.578125 -1.507812 0.046875 -1.53125 C -0.253906 -1.570312 -0.5 -1.628906 -0.6875 -1.703125 C -0.875 -1.773438 -1.144531 -1.914062 -1.5 -2.125 L -9.65625 -6.9375 C -9.988281 -7.144531 -10.234375 -7.3125 -10.390625 -7.4375 C -10.554688 -7.570312 -10.71875 -7.757812 -10.875 -8 C -11.132812 -8.445312 -10.976562 -9.15625 -10.40625 -10.125 C -9.84375 -11.0625 -9.320312 -11.535156 -8.84375 -11.546875 C -8.488281 -11.535156 -8.128906 -11.421875 -7.765625 -11.203125 C -7.835938 -11.328125 -7.910156 -11.554688 -7.984375 -11.890625 C -8.054688 -12.222656 -8.09375 -12.53125 -8.09375 -12.8125 C -8.144531 -13.539062 -7.984375 -14.21875 -7.609375 -14.84375 Z M -7.609375 -14.84375 "/></g></g></g></svg>